<svg height="100" viewBox="0 0 75.012107 75.012268" width="100" xmlns="http://www.w3.org/2000/svg"><path d="m3.0667.012251c-.76806.27152-1.8949.16933-2.1005 1.7313-.21456 1.6349.63466 3.0217 1.3811 3.8567l6.489 5.725 18.751 16.513 7.2118 6.1398c.73382.42041 2.4647.79995 3.2454.71818.60582-.06131 1.9635-.39705 2.5242-.71818l7.3922-6.3034 17.129-15.068 5.9498-5.2378c.96819-.84959 2.4088-1.8218 3.0236-3.3516.22358-.5547.38584-1.3225.34437-1.9882-.13342-2.1809-2.3565-2.0466-3.368-2.0174h-67.971zm46.878 32.958c.36962 2.0407 2.9515 6.0958 3.9378 7.8827l7.6518 14.014c.96459 1.778 2.9966 5.0566 3.5555 7.007-1.3649-.60142-3.5249-4.0873-4.6878-5.6666l-9.9167-13.529s-2.7045-3.699-2.7045-3.699c-.31012-.42625-.89611-1.3196-1.2621-1.5123-.68514-.36202-1.7633 1.1065-2.3439 1.6904-1.7417 1.7517-3.1517 3.664-5.2286 4.1953-2.8271.7211-4.3741-.7357-6.671-3.0684-.69778-.70942-2.6847-3.2085-3.4257-2.8173-.36601.19269-.95199 1.0861-1.2621 1.5123l-2.7045 3.699-9.9167 13.529c-1.163 1.5795-3.3229 5.0654-4.6878 5.6666.56794-2.0378 2.3836-4.9106 3.35-6.715l7.8415-14.306c1.0367-1.8481 3.4456-5.7806 3.954-7.8827l-6.1302-6.423-12.801-14.11-4.3273-4.6098c-1.6011-1.451-2.16-1.1182-2.1636 1.7867v58.39c0 .73862-.019833 1.632.1172 2.3356.34438 1.778 1.8553 3.9034 2.9479 4.4377.5373.26276 1.0674.23356 1.6227.23356h65.989c.57878-.0028 1.0674.04379 1.6227-.28319 1.0313-.60142 2.1979-2.4057 2.5512-4.0961.20915-1.0043.15326-2.6976.15326-3.7954v-57.225c0-.64814.06671-1.8977-.28848-2.3239-.45438-.54886-1.2783.16057-1.6948.53718 0 0-4.3273 4.6246-4.3273 4.6246l-12.621 13.999s-6.1302 6.5194-6.1302 6.5194z" fill="#fff" stroke-width=".40001"/></svg>