<svg height="100.01" viewBox="0 0 75.003434 75.003535" width="100.01" xmlns="http://www.w3.org/2000/svg"><g stroke-width=".33335"><rect height="75.004" rx="12.501" width="75.004" x="-.000151"/><path d="m26.578 5.7959c-2.0934 5.2669-4.0269 14.144 2.3334 17.334 3.2368 1.6234 7.827.7967 8.3904 1.5667.93004.85337 2.0534 8.1571 2.2468 10.434.11 1.9968-.84337 4.9302 0 8.0004 1.4667-1.8768 1.0334-5.0636 1.03-7.3337-.0067-4.8469-1.3634-11.587-4.0335-15.667-1.9601-2.9968-3.2702-3.3168-4.9669-5.6669 3.3668 1.3201 4.7402 4.2369 7.0003 6.667.93671-3.2968-.20334-7.2803-2.6801-9.6338-1.2601-1.1967-2.8735-1.8768-4.3202-2.8135-1.6301-1.06-3.1335-2.2934-5.0002-2.8868z" fill="#fff"/><path d="m36.838 27.767c-.33001-.68003-.82337-.71337-1.5934-.97005v9.6671c.7267-.11334 1.8668-.23668 2.3434-.90004.16334-.88338.06334-2.6368.06334-2.6501-.1-1.4167-.12667-3.7335-.81337-5.1469zm-9.2604-3.3035-.33335 4.3335v5.6669l-.33335 7.3337c1.4567-.39335 5.2169-2.6668 5.8003-4.0602.27668-.66336.20001-2.4834.20001-3.2735v-6.3336c-.01002-.56003.02333-1.2967-.33002-1.7668-.56669-.7567-3.9902-1.6701-5.0036-1.9001zm20.001 21.334s2.2168.42002 2.0001 1c-.29001.62336-5.3336.6667-5.3336.6667 1.1634 1.7367 2.6435 3.3335 3.3602 5.3336.22001.6167 1.1334 2.6535-.7667 2.5501-.87337-.14001-1.4701-2.4934-1.8868-3.2168-.99671-1.7267-2.3401-3.1301-4.0402-4.1769-3.3735-2.0834-6.8837-2.2801-10.667-2.7301-.95671-.11334-4.3335-.02-4.6269-.14667-.19668-.07334-.39002-1.6267-.31668-2.6135l.27668-5.6669c-.0033-1.2601.11-2.5701-.81004-3.5735-.73003-.7967-2.3201-1.4767-3.0468-.32002-.39668.63003-.64003 3.3235-.7667 4.2269l-1.0434 7.667c-.12.88671-.48336 2.8735-.35668 3.6668.23334 1.4167 1.7201 2.6801 2.6901 3.6668l5.2636 5.6669c1.9001 2.2401 3.6502 8.3637 4.0702 11.334h16.334c.68003 0 1.9234.08 2.4734-.34002.62336-.47669.76004-1.9134.94004-2.6601.41002-1.7267 1.1334-3.3535 1.7868-5.0002 2.9601-7.467 2.1468-16.981 2.1334-25.001l-.33335-5.3336c-.0067-1.2867.14001-6.4703-.20001-7.3137-.68003-1.6901-3.0101-1.6067-3.7435-.54336-.39335.57669-.47669 2.4068-.65336 3.1902v6.3336l-.40002 4.0002c-.04001 1.8034-.04667 2.5901 1.3501 3.9002.77337.7267 2.8801 1.9134 2.7268 3.0901-.24668 1.9134-4.9102 2.2734-6.4136 2.3434zm.65336-7.667v-5.3336l-.32002-4.0002v-8.6671c-.01334-1.0134-.08668-2.6901-.71337-3.5235-.81337-1.0901-2.8101-1.0334-3.5635.24001-.46002.7767-.39002 2.0601-.39002 2.9501l-.33335 7.0003v4.3335c0 .96338-.17001 3.7502.33002 4.4502.44002.6167 4.1035 2.1634 4.9902 2.5501zm-9.3204-26.668c.81337 2.8568 1.6234 2.8868 1.6667 6.3336.02333 2.1868-.25334 4.9369.33335 7.0003.39335-.99338.33002-1.6134.33335-2.6668.0033-1.8534.29001-7.9637-.43669-9.2971-.49002-.89338-1.0067-1.0567-1.8968-1.3701z" fill="#fff"/></g></svg>
