<svg height="200.01" viewBox="0 0 117.79222 150.00556" width="157.05" xmlns="http://www.w3.org/2000/svg"><g stroke-width=".30327"><path d="m35.843 37.313c-9.0738 0-16.413 1.483-23.655 7.418-14.751 12.094-16.313 34.251-3.5877 48.384 4.6127 5.1222 11.364 8.8919 18.145 10.172 3.0782.58229 5.6984.44884 8.7948.44278 2.6779-.003 5.9562-.67022 8.4915-1.5406.92497-.31541 4.1487-1.7923 4.8402-1.7256.85522.0819 3.9425 3.248 4.8644 3.9728 2.8811 2.2654 8.1458 5.3284 11.828 5.662v35.179c.003 1.025-.05761 2.0834.43974 3.0206 1.1039 2.0713 3.9304 2.2776 5.4285.51555.88252-1.0342.80063-2.2684.80366-3.5361v-33.966c4.5824 0 7.6242.10001 12.131-1.3708 10.247-3.339 18.011-10.815 21.432-21.071.80367-2.4171 1.5861-5.6438 1.6164-8.1883.0122-1.1524-.12737-4.9221.18196-5.7621.30024-.82184 2.3291-3.0448 3.0266-3.9425 1.8166-2.3412 3.2147-4.5642 4.4156-7.2785 4.7735-10.799 3.2207-23.576-3.7272-33.056-2.1775-2.969-3.988-4.7917-6.9297-7.0055l-4.6067-3.1206-1.856-3.521c-1.1433-2.1108-2.2078-3.6089-3.7302-5.4589-5.4103-6.5718-14.863-11.512-23.47-11.524-4.2215-.006-6.396-.16679-10.614.9553-11.03 2.9417-19.84 11.464-23.133 22.396-.87948 2.9175-1.4436 6.9631-1.4314 10.008z"/><path d="m72.235 104.64v-36.089c.0061-2.414.04246-2.3564 1.8196-3.9941l2.1229-2.044 7.5817-6.9904c1.0463-1.0008 2.6688-2.1775 3.4178-3.3481 1.6953-2.6354-.84309-5.4164-3.1146-5.0252-1.5224.26384-2.8386 1.856-3.9425 2.8507l-7.885 7.0268v-31.843c-.003-1.0705.08188-2.0804-.52769-3.0266-1.5224-2.3716-4.5096-2.2169-5.7894.2972-.41851.82489-.35482 1.8287-.35482 2.7294v56.711l-13.344-6.8994-16.68-8.7918c-2.1471-1.0099-4.9494-.85825-5.3861 2.044-.3336 2.2078 1.5649 3.4482 3.2632 4.3185l12.131 6.3747 15.163 8.0427c4.0608 2.1411 4.8462 1.9106 4.8523 4.919v11.221c-3.3329-.78244-7.5969-3.6756-9.9958-6.0775-1.4527-1.4496-3.1601-4.4641-5.1677-4.7674-1.5831-.23958-2.9478.87949-4.2458 1.6164-1.6255.92497-3.9516 1.8287-5.7621 2.3321-8.5219 2.3625-18.354.17286-24.868-5.8683-11.185-10.366-11.903-27.473-1.1858-38.476 2.3837-2.4474 5.6348-4.4702 8.7675-5.8137 2.6991-1.1555 6.769-2.0137 9.7046-2.0804 0 0 7.885.834 7.885.834.83399-.13047 1.483-.54589 2.1138-1.1737 1.4345-1.6922.47916-3.5088 0-5.4255-.70055-3.6605-.65203-5.1495-.24262-8.7948 1.3162-11.788 12.516-22.603 24.513-22.745h2.7294c7.6727.0119 15.112 4.0395 19.813 10.008 1.3677 1.7347 2.2017 3.1844 3.157 5.1556.59744 1.2343 1.0069 2.5869 1.9622 3.6089l7.2148 4.9706c5.2951 4.6036 9.0132 11.931 9.0981 19.018.0667 5.8986-1.3647 11.224-4.825 16.073l-5.5256 6.6719v7.5817c-.0698 9.1891-6.6386 18.466-14.821 22.345-4.9585 2.3503-8.3338 2.5232-13.647 2.5232z" fill="#4b7928"/></g></svg>