<svg height="99.998" viewBox="0 0 74.996414 74.998175" width="99.997" xmlns="http://www.w3.org/2000/svg"><path d="m17.025 0 9.8254 16.641s.85438 1.2693 0 2.9618c.0043 0-8.7914 8.1702-8.7914 8.1702s-1.1235 1.244-.02563 3.0422c.02563.02536 7.7706 18.088 27.31 26.445.05554 0 1.2431.60926 2.247-.30464l7.5486-8.4286s1.5891-1.3074 3.6097-.46119l16.118 9.5414s.23069 3.4992.0769 5.0395c0 0 .2734 8.2294-13.708 11.885 0 0-4.0411 1.0747-8.4286-.03812 0 0-40.055-8.3482-52.583-52.211 0 0-2.9134-17.758 12.234-21.833l4.5667-.44851z" fill="#fff" stroke-width=".39999"/></svg>