<svg height="99.919" viewBox="0 0 74.988968 74.939422" width="99.987" xmlns="http://www.w3.org/2000/svg"><path d="m62.676 74.891.103-1.8916v-14.187l.10197-1.6551c.0062-.29792-.03192-.77791.10609-1.0321.16995-.30975.63552-.43033.92494-.545l1.854-.87958c1.6737-.9245 3.467-2.491 4.7289-4.0457 2.1815-2.6884 3.7873-6.3864 4.2221-10.049v-1.064l.1133-1.3005v-3.192l.103-1.6551v-10.049l-.103-2.0098v-2.9556c-.01032-7.9103-4.8369-15.269-11.433-17.548-2.5616-.8855-4.7917-.64432-7.4159-.65851l-1.442-.11822h-29.355l-1.545.11822h-8.2398c-1.9405.0036-4.1229.52256-5.8708 1.5085-1.2669.71407-2.6584 1.6835-3.708 2.7676-2.1857 2.2569-3.3063 3.9936-4.4721 7.0735-.38419 1.0144-.67671 1.8656-.8827 2.9556-.13802.73535-.30694 2.0949-.31003 2.8374l-.103 2.3645v16.906l.103 2.0098c.00206 1.168.18334 3.1412.45629 4.2561 1.3235 5.4076 4.8381 10.023 9.3286 12.227 1.2133.59584 3.0117 1.3667 4.3261 1.369h27.81c1.201.0024 1.4502.571 2.369 1.4187l3.605 3.3989 9.7849 9.205 4.8409 4.4205zm-23.999-53.2c1.2556-1.4411 2.4483-2.7156 4.3261-2.7191h.92698c.53252.0071.94965.09695 1.442.34048 3.1991 1.5771 2.987 6.0248 2.987 9.3538v2.128l.103 2.0098v3.192h-4.5321l-.103-9.3398c-.002-1.4671-.26676-3.341-1.854-3.5231-.90434-.10404-2.0054.94106-2.2948 1.868-.08756.28374-.07416.64552-.07416.94578v2.7191l-.103 1.7734v5.5564h-4.3261l-.103-1.8916v-7.0935c-.002-1.5617-.20909-3.7063-1.957-3.8553-.30797-.02599-.65096.08512-.92698.23763-1.135.62896-1.3369 1.8348-1.339 3.1447v1.8916l-.103 1.7734v5.7928h-4.4289v-10.64c0-1.3832.04635-4.8401-.206-6.0296.69215-.22581 3.0488-.11822 3.914-.11822 0 0 .206 2.128.206 2.128.70759-.58168 1.1392-1.2946 1.957-1.758 2.1661-1.2272 5.5412-.82638 6.4888 2.1127zm-25.338 9.8125 1.339.62068c.66947.253 1.8715.50481 2.575.55092.72719.04729 1.6974-.20453 1.856-1.1716.10197-.62896-.30694-1.0463-.72307-1.3454l-2.678-1.3868c-.82194-.46225-1.6397-1.1113-2.1527-1.9968-1.4203-2.4543-.35844-5.494 1.7407-6.8723.78383-.51428 1.7695-.91742 2.678-.93042 1.3318-.01776 1.9673-.04374 3.296.26009.33681.07685 1.0465.22817 1.3071.45869.49852.44333 0 2.0902-.13596 2.7097-.05768.26482-.11742.75783-.37801.85358-.20806.07567-.68287-.14186-.8961-.22344-.64168-.24354-1.066-.38423-1.751-.39368-.31106-.0036-.96613-.03075-1.236.08749-.77351.3393-1.0877 1.1586-.48101 1.8869.58092.69751 1.8488 1.1137 2.644 1.505 1.7675.86778 3.1683 2.1871 3.193 4.5601.0072.69515.0062 1.3371-.18334 2.0098-.18025.6384-.54692 1.1822-.9517 1.6551-1.8818 2.1954-4.1385 1.9235-6.5899 1.8916-.89402-.013-1.4409-.2199-2.266-.55092-.22763-.09103-.68699-.23526-.8209-.47173-.14111-.24709.0093-.82758.06386-1.1054l.55104-2.6009zm47.481-8.1574c-1.1309-.26128-1.6336-.69163-2.884-.70935-.43261-.006-.94246-.03548-1.339.18561-.71067.39605-.89402 1.1456-.29767 1.7994.43361.47525 1.4749.93514 2.0487 1.2082 1.2288.5864 2.2206 1.0841 3.0395 2.3633 1.3483 2.1079.88578 5.0988-.87654 6.6927-.98261.88906-2.8757 1.4471-4.1201 1.4648-1.4976.02011-2.3463-.0603-3.811-.48825-.36771-.1064-1.1155-.30265-1.2793-.73419-.11433-.29792.01648-.83466.08138-1.142l.57988-2.4827.92698.46225c.92186.43269 2.4133.82874 3.399.65023.54488-.09813 1.1495-.2199 1.3936-.87842.39861-1.0723-1.0413-1.8147-1.7026-2.1411-2.0023-.98717-4.3981-1.9341-4.4289-4.9501-.0062-.64668-.03092-1.0262.13905-1.6551.68391-2.543 2.8613-4.0161 5.114-4.0197h1.133c.77867.0012 1.8324.16906 2.575.43269.23999.08512.68187.19271.80031.44569.15347.25181.03092.73419 0 1.0132l-.49133 2.4827z" fill="#fff"/></svg>